# Blender 3.6.5
# www.blender.org
o boom_pistons
v 1.608778 0.310272 0.025346
v 1.608794 0.316823 0.011847
v -0.000018 0.315425 0.013698
v -0.000031 0.309271 0.024533
v -0.000006 0.318333 0.002552
v 1.608811 0.318563 -0.003050
v 0.000009 0.317892 -0.009425
v 1.608768 0.301485 0.033799
v -0.000040 0.301174 0.032049
v -0.000047 0.290539 0.037946
v 1.608762 0.292272 0.039174
v 0.000045 0.257577 -0.040495
v 1.608852 0.256119 -0.038152
v 0.000035 0.244606 -0.031506
v 1.608841 0.244249 -0.028836
v 1.608830 0.237761 -0.019017
v 0.000049 0.268881 -0.044269
v 1.608857 0.269425 -0.042412
v 0.000049 0.284568 -0.044021
v 1.608857 0.285327 -0.042173
v 0.000042 0.299319 -0.037921
v 1.608849 0.301196 -0.034811
v 0.000033 0.307807 -0.030399
v 1.608833 0.313416 -0.021257
v 0.000023 0.314169 -0.021179
v -0.000050 0.275451 0.040451
v 1.608757 0.274641 0.042556
v 0.000009 0.233891 -0.010666
v 1.608816 0.233829 -0.007150
v -0.000012 0.234626 0.008344
v 1.608794 0.234740 0.011834
v -0.000030 0.241229 0.022582
v 1.608773 0.244241 0.028257
v -0.000043 0.252532 0.033474
v 1.608763 0.256707 0.037803
v -0.000048 0.263836 0.038519
v 1.608840 -0.387573 0.023605
v 0.000049 -0.393433 0.016382
v 1.608867 -0.392698 0.012766
v 0.000080 -0.397784 0.000959
v 1.608889 -0.394899 0.000778
v 0.000102 -0.396394 -0.014292
v 1.608909 -0.392439 -0.014759
v 0.000110 -0.387157 -0.031573
v 1.608913 -0.384560 -0.028162
v -0.000099 -0.317236 0.016487
v 1.608705 -0.315718 0.021544
v 1.608710 -0.310868 0.010369
v -0.000084 -0.312742 0.000916
v 1.608734 -0.309720 -0.004288
v -0.000056 -0.314540 -0.015373
v 1.608762 -0.313665 -0.018802
v -0.000011 -0.324059 -0.032206
v -0.000099 -0.326611 0.028794
v 1.608704 -0.322487 0.030358
v -0.000086 -0.339843 0.037002
v 1.608715 -0.334463 0.038477
v 1.608733 -0.346533 0.041901
v -0.000068 -0.351064 0.039510
v -0.000044 -0.363237 0.039133
v 1.608761 -0.360461 0.041670
v -0.000008 -0.377633 0.033585
v 1.608801 -0.376528 0.034776
v 0.000021 -0.386515 0.026074
v 1.608797 -0.322578 -0.031098
v 0.000044 -0.343555 -0.044187
v 1.608834 -0.334895 -0.039387
v 1.608859 -0.345736 -0.042409
v 0.000083 -0.362894 -0.044804
v 1.608884 -0.358230 -0.042642
v 0.000099 -0.374529 -0.040681
v 1.608904 -0.373113 -0.037598
vn 0.0005 0.9944 -0.1061
vn 0.0001 0.9815 -0.1917
vn -0.0004 0.9901 0.1407
vn 0.0012 -0.4708 -0.8822
vn 0.0002 -0.7518 -0.6594
vn 0.0010 -0.4614 -0.8872
vn 0.0034 -0.7354 -0.6776
vn 0.0007 -0.9008 -0.4343
vn 0.0012 -0.1680 -0.9858
vn 0.0012 -0.1502 -0.9886
vn 0.0009 0.5265 -0.8502
vn -0.0054 0.5906 -0.8069
vn 0.0012 0.2210 -0.9753
vn 0.0006 0.7305 -0.6829
vn 0.0009 0.8692 -0.4944
vn -0.0013 -0.0110 0.9999
vn 0.0044 -0.0347 0.9994
vn -0.0012 0.3152 0.9490
vn -0.0053 0.3459 0.9383
vn -0.0001 0.9557 0.2943
vn -0.0002 -0.9757 -0.2192
vn -0.0005 -0.9717 0.2364
vn -0.0002 -0.9593 0.2823
vn -0.0011 -0.8144 0.5803
vn 0.0022 -0.7503 0.6611
vn -0.0013 -0.5591 0.8291
vn -0.0029 -0.4394 0.8983
vn -0.0014 -0.2881 0.9576
vn 0.0010 -0.8170 0.5767
vn 0.0007 -0.8944 0.4472
vn 0.0016 -0.9507 0.3100
vn 0.0014 -0.9958 0.0919
vn -0.0004 -0.9999 0.0138
vn 0.0020 -0.9625 -0.2711
vn 0.0025 -0.9426 -0.3340
vn 0.0021 -0.7528 -0.6582
vn 0.0026 -0.7621 -0.6475
vn 0.0089 0.8899 0.4561
vn -0.0019 0.9735 0.2287
vn 0.0236 0.9972 0.0704
vn -0.0129 0.9961 -0.0869
vn -0.0018 0.9463 -0.3233
vn -0.0007 0.8978 -0.4404
vn 0.0080 0.7218 -0.6920
vn 0.0035 0.3839 0.9234
vn 0.0028 0.1287 0.9917
vn -0.0021 0.4170 0.9089
vn -0.0010 -0.2086 0.9780
vn -0.0146 -0.5167 0.8560
vn 0.0001 -0.5598 0.8286
vn 0.0001 -0.7245 0.6893
vn -0.0002 0.6864 -0.7273
vn 0.0003 -0.4902 -0.8716
vn 0.0021 -0.4607 -0.8876
vn -0.0006 0.9338 0.3578
vn -0.0115 0.7911 0.6116
vn 0.0349 0.7999 0.5992
vn 0.0039 0.6004 0.7997
vn -0.0010 0.5823 0.8130
vn 0.0011 0.1960 -0.9806
vn 0.0005 0.8884 -0.4591
vn 0.0003 -0.9899 -0.1418
vn -0.0026 0.6798 0.7334
vn -0.0024 0.8622 0.5066
vn -0.0026 0.6821 0.7313
vn -0.0018 0.0951 0.9955
vn -0.0012 -0.1841 0.9829
vn 0.0006 0.4106 -0.9118
vn -0.0031 0.2946 -0.9556
vn 0.0037 -0.1524 -0.9883
vn 0.0017 -0.1526 -0.9883
vn 0.0014 0.1473 -0.9891
vn -1.0000 -0.0000 -0.0010
vn -1.0000 -0.0000 -0.0012
vn -1.0000 -0.0001 -0.0013
vn -1.0000 0.0001 -0.0011
vn -1.0000 -0.0000 -0.0011
vn -1.0000 0.0002 -0.0014
vn -1.0000 0.0001 -0.0013
vn -1.0000 -0.0019 -0.0017
vn -1.0000 -0.0006 -0.0012
vn -1.0000 0.0003 -0.0013
vn -1.0000 -0.0019 -0.0015
vn -1.0000 -0.0019 -0.0014
vn -1.0000 -0.0020 -0.0015
vn -1.0000 -0.0021 -0.0016
vn -1.0000 -0.0019 -0.0016
vn -1.0000 -0.0020 -0.0014
vn 1.0000 0.0020 0.0018
vn -1.0000 -0.0020 -0.0016
vn 1.0000 0.0018 0.0017
vn 1.0000 0.0019 0.0015
vn 1.0000 0.0019 0.0013
vn 1.0000 -0.0000 0.0011
vn 1.0000 0.0020 0.0014
vn 1.0000 0.0021 0.0015
vn 1.0000 0.0016 0.0015
vn 1.0000 0.0033 0.0019
vn 1.0000 0.0018 0.0015
vn 1.0000 0.0021 0.0017
vn 1.0000 0.0019 0.0016
vn 1.0000 0.0020 0.0012
vn 1.0000 -0.0000 0.0012
vn 1.0000 -0.0001 0.0011
vn 1.0000 0.0001 0.0012
vn 1.0000 0.0002 0.0011
vn 1.0000 -0.0000 0.0010
s 1
f 6//1 7//2 5//3
f 13//4 14//5 12//6
f 14//5 15//7 16//8
f 13//4 17//9 18//10
f 21//11 22//12 20//13
f 22//12 23//14 24//15
f 26//16 27//17 10//18
f 10//18 27//17 11//19
f 6//1 5//3 2//20
f 16//8 28//21 14//5
f 30//22 31//23 32//24
f 32//24 31//23 33//25
f 32//24 33//25 34//26
f 34//26 33//25 35//27
f 34//26 35//27 36//28
f 36//28 35//27 27//17
f 27//17 26//16 36//28
f 37//29 38//30 39//31
f 40//32 41//33 39//31
f 41//33 42//34 43//35
f 44//36 45//37 43//35
f 46//38 48//39 49//40
f 49//40 48//39 50//41
f 50//41 51//42 49//40
f 52//43 53//44 51//42
f 56//45 58//46 57//47
f 61//48 62//49 63//50
f 63//50 64//51 37//29
f 65//52 53//44 52//43
f 72//53 44//36 71//54
f 3//55 4//56 1//57 2//20
f 11//19 8//58 9//59 10//18
f 4//56 8//58 1//57
f 8//58 4//56 9//59
f 20//13 18//10 17//9 19//60
f 14//5 13//4 15//7
f 12//6 17//9 13//4
f 7//2 6//1 24//15 25//61
f 19//60 21//11 20//13
f 21//11 23//14 22//12
f 23//14 25//61 24//15
f 31//23 30//22 28//21 29//62
f 2//20 5//3 3//55
f 28//21 16//8 29//62
f 55//63 47//64 46//38 54//65
f 38//30 40//32 39//31
f 40//32 42//34 41//33
f 42//34 44//36 43//35
f 47//64 48//39 46//38
f 51//42 50//41 52//43
f 57//47 55//63 54//65 56//45
f 61//48 58//46 59//66 60//67
f 58//46 56//45 59//66
f 67//68 66//69 53//44 65//52
f 60//67 62//49 61//48
f 62//49 64//51 63//50
f 64//51 38//30 37//29
f 70//70 69//71 66//69 68//72
f 68//72 66//69 67//68
f 72//53 71//54 69//71 70//70
f 44//36 72//53 45//37
s 0
f 19//73 17//73 12//73
f 12//74 23//74 19//74
f 3//74 7//74 23//74
f 12//75 14//75 28//75
f 12//76 28//76 30//76
f 23//74 36//74 9//74
f 9//77 36//77 26//77
f 12//74 30//74 36//74
f 23//74 12//74 36//74
f 32//78 34//78 36//78
f 32//79 36//79 30//79
f 23//74 21//74 19//74
f 3//74 23//74 9//74
f 9//74 4//74 3//74
f 64//80 62//80 60//80
f 3//81 5//81 7//81
f 10//74 9//74 26//74
f 7//82 25//82 23//82
f 71//83 64//83 59//83
f 54//84 46//84 59//84
f 71//85 44//85 42//85
f 71//86 42//86 40//86
f 69//87 71//87 51//87
f 71//83 40//83 64//83
f 51//83 71//83 59//83
f 38//88 64//88 40//88
f 46//83 51//83 59//83
f 46//83 49//83 51//83
f 72//89 70//89 68//89
f 53//88 66//88 69//88
f 59//83 64//83 60//83
f 59//90 56//90 54//90
f 53//87 69//87 51//87
f 67//91 65//91 68//91
f 39//92 47//92 58//92
f 72//93 68//93 45//93
f 20//94 22//94 18//94
f 50//95 68//95 65//95
f 45//92 68//92 39//92
f 43//96 45//96 39//96
f 39//97 41//97 43//97
f 50//98 48//98 47//98
f 39//92 68//92 47//92
f 68//99 50//99 47//99
f 47//92 57//92 58//92
f 47//100 55//100 57//100
f 63//101 37//101 39//101
f 63//101 39//101 58//101
f 52//95 50//95 65//95
f 58//102 61//102 63//102
f 16//103 2//103 8//103
f 13//103 18//103 15//103
f 16//104 15//104 18//104
f 22//103 24//103 6//103
f 6//94 2//94 18//94
f 2//103 16//103 18//103
f 29//105 16//105 33//105
f 31//106 29//106 33//106
f 1//103 8//103 2//103
f 18//103 22//103 6//103
f 8//94 35//94 33//94
f 11//94 35//94 8//94
f 11//107 27//107 35//107
f 33//103 16//103 8//103
